REM DIRINDEX 1\2,1\3,1\4,1\5\6,1\5\7,1\8
REM DIRNAME cjc115,folder01,folder02,folder03,folder04,folder05,folder06,folder07
TITLE ""
FILE "006 【006】Unit1 (0061 fund_0072 survey).mp3" MP3
  TRACK 01 AUDIO
    TITLE "0:"
    INDEX 01 00:00:00
  TRACK 02 AUDIO
    TITLE "2:cjc115_0182"
    INDEX 01 00:00:05
  TRACK 03 AUDIO
    TITLE "0:"
    INDEX 01 00:01:17
  TRACK 04 AUDIO
    TITLE "3:cjc115_0183"
    INDEX 01 00:01:26
  TRACK 05 AUDIO
    TITLE "0:"
    INDEX 01 00:02:28
  TRACK 06 AUDIO
    TITLE "4:cjc115_0184"
    INDEX 01 00:02:38
  TRACK 07 AUDIO
    TITLE "0:"
    INDEX 01 00:05:32
  TRACK 08 AUDIO
    TITLE "2:cjc115_0185"
    INDEX 01 00:06:39
  TRACK 09 AUDIO
    TITLE "0:"
    INDEX 01 00:07:62
  TRACK 10 AUDIO
    TITLE "3:cjc115_0186"
    INDEX 01 00:07:70
  TRACK 11 AUDIO
    TITLE "0:"
    INDEX 01 00:09:26
  TRACK 12 AUDIO
    TITLE "4:cjc115_0187"
    INDEX 01 00:09:30
  TRACK 13 AUDIO
    TITLE "0:"
    INDEX 01 00:12:52
  TRACK 14 AUDIO
    TITLE "2:cjc115_0188"
    INDEX 01 00:13:63
  TRACK 15 AUDIO
    TITLE "0:"
    INDEX 01 00:15:13
  TRACK 16 AUDIO
    TITLE "3:cjc115_0189"
    INDEX 01 00:15:19
  TRACK 17 AUDIO
    TITLE "0:"
    INDEX 01 00:16:26
  TRACK 18 AUDIO
    TITLE "4:cjc115_0190"
    INDEX 01 00:16:36
  TRACK 19 AUDIO
    TITLE "0:"
    INDEX 01 00:21:39
  TRACK 20 AUDIO
    TITLE "2:cjc115_0191"
    INDEX 01 00:22:50
  TRACK 21 AUDIO
    TITLE "0:"
    INDEX 01 00:24:08
  TRACK 22 AUDIO
    TITLE "3:cjc115_0192"
    INDEX 01 00:24:18
  TRACK 23 AUDIO
    TITLE "0:"
    INDEX 01 00:26:11
  TRACK 24 AUDIO
    TITLE "4:cjc115_0193"
    INDEX 01 00:26:22
  TRACK 25 AUDIO
    TITLE "0:"
    INDEX 01 00:29:70
  TRACK 26 AUDIO
    TITLE "2:cjc115_0194"
    INDEX 01 00:31:06
  TRACK 27 AUDIO
    TITLE "0:"
    INDEX 01 00:32:27
  TRACK 28 AUDIO
    TITLE "3:cjc115_0195"
    INDEX 01 00:32:35
  TRACK 29 AUDIO
    TITLE "0:"
    INDEX 01 00:34:00
  TRACK 30 AUDIO
    TITLE "4:cjc115_0196"
    INDEX 01 00:34:10
  TRACK 31 AUDIO
    TITLE "0:"
    INDEX 01 00:37:12
  TRACK 32 AUDIO
    TITLE "2:cjc115_0197"
    INDEX 01 00:38:16
  TRACK 33 AUDIO
    TITLE "0:"
    INDEX 01 00:39:39
  TRACK 34 AUDIO
    TITLE "3:cjc115_0198"
    INDEX 01 00:39:47
  TRACK 35 AUDIO
    TITLE "0:"
    INDEX 01 00:42:12
  TRACK 36 AUDIO
    TITLE "4:cjc115_0199"
    INDEX 01 00:42:18
  TRACK 37 AUDIO
    TITLE "0:"
    INDEX 01 00:46:33
  TRACK 38 AUDIO
    TITLE "2:cjc115_0200"
    INDEX 01 00:47:44
  TRACK 39 AUDIO
    TITLE "0:"
    INDEX 01 00:48:61
  TRACK 40 AUDIO
    TITLE "3:cjc115_0201"
    INDEX 01 00:48:69
  TRACK 41 AUDIO
    TITLE "0:"
    INDEX 01 00:50:70
  TRACK 42 AUDIO
    TITLE "4:cjc115_0202"
    INDEX 01 00:51:01
  TRACK 43 AUDIO
    TITLE "0:"
    INDEX 01 00:56:02
  TRACK 44 AUDIO
    TITLE "2:cjc115_0203"
    INDEX 01 00:57:11
  TRACK 45 AUDIO
    TITLE "0:"
    INDEX 01 00:58:36
  TRACK 46 AUDIO
    TITLE "3:cjc115_0204"
    INDEX 01 00:58:42
  TRACK 47 AUDIO
    TITLE "0:"
    INDEX 01 01:00:72
  TRACK 48 AUDIO
    TITLE "4:cjc115_0205"
    INDEX 01 01:01:03
  TRACK 49 AUDIO
    TITLE "0:"
    INDEX 01 01:04:74
  TRACK 50 AUDIO
    TITLE "2:cjc115_0206"
    INDEX 01 01:06:10
  TRACK 51 AUDIO
    TITLE "0:"
    INDEX 01 01:07:35
  TRACK 52 AUDIO
    TITLE "3:cjc115_0207"
    INDEX 01 01:07:45
  TRACK 53 AUDIO
    TITLE "0:"
    INDEX 01 01:08:72
  TRACK 54 AUDIO
    TITLE "4:cjc115_0208"
    INDEX 01 01:09:05
  TRACK 55 AUDIO
    TITLE "0:"
    INDEX 01 01:13:53
  TRACK 56 AUDIO
    TITLE "2:cjc115_0209"
    INDEX 01 01:14:63
  TRACK 57 AUDIO
    TITLE "0:"
    INDEX 01 01:16:07
  TRACK 58 AUDIO
    TITLE "3:cjc115_0210"
    INDEX 01 01:16:18
  TRACK 59 AUDIO
    TITLE "0:"
    INDEX 01 01:17:43
  TRACK 60 AUDIO
    TITLE "4:cjc115_0211"
    INDEX 01 01:17:53
  TRACK 61 AUDIO
    TITLE "0:"
    INDEX 01 01:21:53
  TRACK 62 AUDIO
    TITLE "2:cjc115_0212"
    INDEX 01 01:22:66
  TRACK 63 AUDIO
    TITLE "0:"
    INDEX 01 01:24:06
  TRACK 64 AUDIO
    TITLE "3:cjc115_0213"
    INDEX 01 01:24:16
  TRACK 65 AUDIO
    TITLE "0:"
    INDEX 01 01:25:31
  TRACK 66 AUDIO
    TITLE "4:cjc115_0214"
    INDEX 01 01:25:41
  TRACK 67 AUDIO
    TITLE "0:"
    INDEX 01 01:29:19
  TRACK 68 AUDIO
    TITLE "2:cjc115_0215"
    INDEX 01 01:30:28
  TRACK 69 AUDIO
    TITLE "0:"
    INDEX 01 01:31:49
  TRACK 70 AUDIO
    TITLE "3:cjc115_0216"
    INDEX 01 01:31:57
  TRACK 71 AUDIO
    TITLE "0:"
    INDEX 01 01:32:57
  TRACK 72 AUDIO
    TITLE "4:cjc115_0217"
    INDEX 01 01:32:68
  TRACK 73 AUDIO
    TITLE "0:"
    INDEX 01 01:38:42
